<svg xmlns="http://www.w3.org/2000/svg" viewBox="0 0 369.44 153"><path d="M120 11.4c7-2.4 7.6-11.4.5-11.4-2 0-4.3 1.4-6 4.2L105 20.7a13.8 13.8 0 0 1-1.4 2c-2.4-3.4-1.7-8.4 1.7-10.6l-1.3-1.7c-7.5 4.7-5.3 18.4 7.2 18.4 10.6 0 15.5-12.7 8.7-17.3zM111 26a10.2 10.2 0 0 1-5-1.2 18.4 18.4 0 0 0 1.7-2.6l6-10.3h1c8.3 1.7 5 14-3.6 14zm4-16.2l2.8-5c2.6-4.4 6-1.8 4 1.6-1.3 2.5-3.3 3.3-7 3.4z" fill="#fff"/><path d="M259.2 19l-.2.3a16.7 16.7 0 0 1-6.5 5l1.4-2.7 4-6.7c3.2-5.8-2.2-7.7-5.8-4.4l.7-1.2h-3.7l-5.5 9.6-.3.3a7.7 7.7 0 0 1-5.3 2.6l3.3-6c2.2-3.6.2-7-3.2-7-2.7 0-4.8 1-7 4.5l-1.6 3-1.5 2.5-.2.2c-2.5 3-5 5.4-6.6 5.4-.8 0-1.2-.6-.4-2l5-9c1.7-2.7.2-4.7-1.8-4.7-1.5 0-3.2.8-5 2.6l5.7-10h-3.7l-10 17.4v.2a22 22 0 0 1-4.3 4c1-3.5 1-8.7 3-13.2l-2.6-1.5c-1.5 2-4.7 6.7-8 10.5v.2c-2.7 3-5.2 5.4-6.8 5.4-.8 0-1.2-.6-.4-2l3.6-6.3c1.2-2 .6-3.4-.5-4.8l-2-2.4a1.4 1.4 0 0 1 0-2h.2l-2-2c-2 1.8-2 4-.8 5.5l.3.4-6 8-.2.2c-2.6 3-6 5.3-8.4 5.3-2.2 0-3.5-1.4-1.8-4.2l.3-.6c2.2 1 6.5.5 9.2-4l.5-1c2-3.3 0-5.8-3-5.8a7.5 7.5 0 0 0-6.5 4l-3.5 6-.2.2A7.6 7.6 0 0 1 166 22l3.5-6a8.7 8.7 0 0 0 1.3-4 3 3 0 0 0-2.8-3.2h-.4a4 4 0 0 0-2.3.8l4.5-7.8H166L156.3 19l-.2.2c-2.6 3-5 5.4-6.6 5.4-.8 0-1.3-.6-.5-2l3.5-6.3c1.2-2 .7-3.4-.5-4.8L150 9a1.4 1.4 0 0 1 0-2h.2l-1.8-2c-2 1.8-2.2 3.8-1 5.5l.3.4-6 8-.2.2c-2.6 3-5 5.3-6.6 5.3-1 0-1.4-.5-.5-2l5.7-10h-2a3.7 3.7 0 0 0-3.8-3.5c-2 0-4.5 1.5-6 4l-5 8.7c-1.6 2.7-.5 5 2.4 5 1.4 0 3.2-.8 5-2.2 0 1.3 1.2 2.3 3 2.3 3 0 6.3-3.2 9.3-6.6 1.8-2 3-3.7 6-7.6l.4.6a1.8 1.8 0 0 1 .2 2l-3.7 6.5c-1.6 2.6-.6 5 2.3 5 2 0 4.3-1.5 6.5-3.6 0 2.5 2 4 4.2 4a8 8 0 0 0 6-3.4 6 6 0 0 0 .7 0 10.4 10.4 0 0 0 4.8-1.4c-.2 2.6 1.6 4.5 4.8 4.5 4 0 8-3 11-6.5 1.7-2 3-3.8 6-7.7l.3.6a1.8 1.8 0 0 1 .3 2l-4 6.6c-1.4 2.7-.3 5 2.5 5s6.4-3 9.3-6.5c2-2.2 3.8-4.7 5-6.4-1.3 3.7-.6 10.4-4 10.4a2 2 0 0 1-1.6-1.3l-2.2 1a4 4 0 0 0 4 3 9.6 9.6 0 0 0 1 0 12.5 12.5 0 0 0 5.5-2.4l-1.3 2h3.6l5.4-9.3c5.5-7 8-6 6.4-3.4l-4.6 8c-1.5 2.7-.5 5 2.4 5 2 0 4.4-1.5 6.6-3.6 0 4.6 6.3 5.4 10 .6h1a9.8 9.8 0 0 0 3.7-1L235.2 34h3.6l10.7-18.6c4-5.5 6.4-3.5 5.5-2l-5.4 9.5a1.4 1.4 0 0 1-2.5 0l-2 1a4 4 0 0 0 4 2.7h.2c5 0 8.5-3.2 11.4-6.5a2.3 2.3 0 0 0-1.4-1.2zm-81-5c2-3.5 5.7-3 3.6.8l-.5.8c-1.8 3-4 3-5.4 2.4zm-45.6 5.6c-2.2 3.4-4.3 5-5.8 5-.7 0-1.2-.5-.4-2l5-8.7c2-3.4 5.7-2.5 4 .7zm26.8 5A1.3 1.3 0 0 1 158 23a4 4 0 0 1 .6-1.8l1.2-2.2a5.2 5.2 0 0 0 2.3 3.7 3.3 3.3 0 0 1-2.6 1.7zM163 21a3.8 3.8 0 0 1-1.4-3.2c0-2.5 2.5-6.7 4.5-6.7a1.4 1.4 0 0 1 1.4 1.7 4.3 4.3 0 0 1-.7 2zm73.2-1.8h-.2a2 2 0 0 0-2 2 2.3 2.3 0 0 0 .2 1.3c-1.6 3-5.7 2.4-3.6-1.3l2.7-4.7 1.7-3c2.5-4 6-2.5 3.8 1.2zM0 73.2l5.7-5.7 5.7 5.8L5.7 79zm352 0l5.7-5.6 5.7 5.7-5.7 5.7z" fill="#fff"/><path fill="#636466" d="M46.8 73.5h2v-8.3h3.3v-2H47v10.3zm15 1.5V62.3a4.6 4.6 0 0 0-2.7-4 4.5 4.5 0 0 1 .6 2v12.6a4.5 4.5 0 0 1-1.7 3.4 5.2 5.2 0 0 1 1.6 3.7v14.2a4.6 4.6 0 0 1-4.6 4.6H41.5v2H57a4.6 4.6 0 0 0 4.7-4.5v-14a5.2 5.2 0 0 0-1.7-3.8 4.5 4.5 0 0 0 1.7-3.5z"/><path fill="#636466" d="M46.8 91.3h2V83h3.3v-2H47v10.3zm33 0h2v-26h3.4V63h-5.4v28.3z"/><path d="M92 58.3a4.5 4.5 0 0 1 .6 2v34a4.6 4.6 0 0 1-4.5 4.5H77a4.5 4.5 0 0 1-2-.5 4.6 4.6 0 0 0 4 2.6h11a4.6 4.6 0 0 0 4.7-4.7v-34a4.6 4.6 0 0 0-2.6-4zM113 73.5h2v-8.3h3.4v-2h-5.4v10.3zm12.3 9a4.5 4.5 0 0 0 2.7-4V62.3a4.6 4.6 0 0 0-2.6-4 4.5 4.5 0 0 1 .6 2v16a4.5 4.5 0 0 1-2.6 4l3 18.5h-5.6l.3 2h7.4zm-9.4-1.6h-2.8v17.8h-5.3v2h7.4V83h1l-.4-2zm29.2 10.3h2v-26h3.4V63h-5.4v28.3z" fill="#636466"/><path d="M157.2 58.3a4.5 4.5 0 0 1 .5 2v34a4.6 4.6 0 0 1-4.6 4.5h-11a4.5 4.5 0 0 1-2-.5 4.6 4.6 0 0 0 4 2.6h11.2a4.6 4.6 0 0 0 4.5-4.7v-34a4.6 4.6 0 0 0-2.5-4zm20.7 33h2v-26h3.2V63H178v28.3z" fill="#636466"/><path d="M190.2 58.3a4.5 4.5 0 0 1 .5 2v34a4.6 4.6 0 0 1-4.6 4.5h-13.5v2h15.7a4.6 4.6 0 0 0 4.6-4.5v-34a4.6 4.6 0 0 0-2.6-4zm21-.5v41H206v2h7.3V58h-2zm33 0v41h-6l.6 2h7.4V58h-2zM231 80v18.8H226v2h7.4V87.3l-2-7.3zm32.4 3h6v-2h-8a4.5 4.5 0 0 1-2-.6 4.5 4.5 0 0 0 4 2.6zm2.8 2.7l-2 .5v5h2v-5.5zm10.3-27.4a4.5 4.5 0 0 1 .4 2V69l-5.2 1.2v2.6l7.4-1.7v-8.7a4.6 4.6 0 0 0-2.5-4z" fill="#636466"/><path d="M276.7 76a4.5 4.5 0 0 1 .4 2v16.2a4.6 4.6 0 0 1-4.4 4.6h-11a4.5 4.5 0 0 1-2-.5 4.6 4.6 0 0 0 4 2.6h11a4.6 4.6 0 0 0 4.6-4.7V80a4.6 4.6 0 0 0-2.5-4zm-12.4-13v10.5h2v-8.3h3.4v-2h-5.4zM298 81h-.7v17.8H292v2h7.4V85.4L298 81zm15.2-23.2h-2.8l-6.2 19.4 7 21.6h-6l.4 1.8v.3h7.5l-6.8-21.7 7-21.5zm17.3 0v41h-5.3v2h7.4V58h-2z" fill="#636466"/><path d="M168 123.8h1.3c5.4.3 9.7 1.8 12.4 4.8 2.7-3 7-4.5 12.5-4.8h1.3c12 1 17.6 9.5 27.3 13.2a11 11 0 0 0 4.8 1c2.5-.2 4-2.7 3.7-5.5-.3-3-3.2-5.7-6.5-4.2a4.3 4.3 0 0 0-1.2.8c-.2.3-.5 1-1.2.7-.6-.5 0-1.2.4-1.6a6 6 0 0 1 6-3c5.7.5 10.7 5.4 9.8 13-2 11-12 14-24 15h-4a48.3 48.3 0 0 1-28.8-11 49 49 0 0 1-29 11H149c-12.2-1-22.4-4-24.2-15.5-.7-8 4-12 9.8-12.5a6 6 0 0 1 6 3c.4.4 1 1 .4 1.7-.6 0-1-.4-1-.6a4 4 0 0 0-3-1.2c-3.8 0-6 4.2-4.5 7.6a4.3 4.3 0 0 0 3.4 2.6 11.7 11.7 0 0 0 4.7-1 23.8 23.8 0 0 0 3.8-2c7.4-4.2 13-10.2 23.4-11.2z" fill="#fff"/><path fill="#636466" d="M361.6 83l5.7-5.8 2 2-5.6 5.8zm-352 0l5.8-5.8 2 2L12 85z"/><path d="M55.6 69a4.5 4.5 0 0 1-1.6 3.5 5.2 5.2 0 0 1 1.7 3.7v14A4.6 4.6 0 0 1 51 95H35.6v-43H51a4.6 4.6 0 0 1 4.7 4.5zm-7.4-10h-5.4v10.5h5.4zm0 18h-5.4v10.4h5.4zm36-25.3a4.6 4.6 0 0 1 4.5 4.6v34a4.6 4.6 0 0 1-4.6 4.5H73a4.6 4.6 0 0 1-4.6-4.5v-34a4.5 4.5 0 0 1 4.6-4.6h11zM81 59h-5.4v28.4h5.4zM114.7 95l-3-18H109v18h-7.5v-43H117a4.5 4.5 0 0 1 4.6 4.5v16a4.5 4.5 0 0 1-2.6 4.2l3 18.3zm-.5-35.7H109v10.5h5.2zm35-7.3a4.6 4.6 0 0 1 4.5 4.6v34a4.6 4.6 0 0 1-4.6 4.5h-11a4.6 4.6 0 0 1-4.5-4.5v-34a4.5 4.5 0 0 1 4.5-4.6h11zm-3 7.4H141v28.4h5.2zm36-7.3a4.6 4.6 0 0 1 4.5 4.6v34a4.6 4.6 0 0 1-4.6 4.5h-15.5v-43zm-3 7.4H174v28.4h5.3zm20.7-7.3h7.3v43H200zm40.2 0v43h-7.4L227.4 76v18.8H220v-43h7.3l5.5 17.6V51.7zm28.4 17.8a4.6 4.6 0 0 1 4.6 4.6v16.3a4.6 4.6 0 0 1-4.6 4.5h-11a4.6 4.6 0 0 1-4.6-4.5v-9l7.4-1.6v7.7h5.4V77h-8.2a4.5 4.5 0 0 1-4.6-4.6v-16a4.5 4.5 0 0 1 4.5-4.7h11a4.6 4.6 0 0 1 4.7 4.6V65l-7.4 1.7V59h-5.4v10.5zm31.6 3.7l7 21.6h-7.5v-.2L294 77h-.6v17.8H286v-43h7.4v17.7h.6l5.7-17.8h7.5zm19-21.5h7.4v43h-7.4z" fill="#fff"/></svg>